first trial
nRows=29
nColumns=38

# SIMM Motion File Header:
name Sujet_02_velo_80.mvnx
datacolumns 38
datarows 29
otherdata 1
range 7.8660 8.3330
endheader
time pelvis_tilt  pelvis_list  pelvis_rotation  pelvis_tx  pelvis_ty  pelvis_tz  hip_flexion_r  hip_adduction_r  hip_rotation_r  knee_angle_r  ankle_angle_r  subtalar_angle_r  mtp_angle_r  hip_flexion_l  hip_adduction_l  hip_rotation_l  knee_angle_l  ankle_angle_l  subtalar_angle_l  mtp_angle_l  lumbar_extension  lumbar_bending  lumbar_rotation  arm_flex_r  arm_add_r  arm_rot_r  elbow_flex_r  pro_sup_r  wrist_flex_r  wrist_dev_r  arm_flex_l  arm_add_l  arm_rot_l  elbow_flex_l  pro_sup_l  wrist_flex_l  wrist_dev_l
7.8660	4.3192	0.6922	-88.7499	-2.8289	8.2955	9.2347	29.9361	-4.1727	-7.1264	51.9738	-3.8722	-5.9173	-0.0000	67.8707	5.1890	0.8576	97.5800	-13.6919	-14.4406	-0.0000	-26.9254	3.1598	1.3461	83.0441	-18.6426	46.5767	12.5641	94.6404	-16.8719	-4.2546	92.5894	3.1747	32.5217	3.7294	92.6859	-9.1702	3.5089	
7.8830	4.2429	0.5649	-88.7626	-2.8334	8.3138	9.2534	31.2456	-4.4022	-6.9556	56.3895	-3.4976	-5.4324	-0.0000	67.2436	5.0780	0.5254	94.2059	-13.6440	-13.8220	-0.0000	-26.9933	3.2424	1.4038	83.4300	-18.8201	46.8113	12.5006	94.5260	-16.8016	-4.2381	92.7997	3.2278	32.3244	3.7805	92.7702	-8.9232	3.7315	
7.8990	4.1672	0.4334	-88.7792	-2.8378	8.3322	9.2718	32.7781	-4.7399	-6.5419	60.9760	-3.2493	-4.9984	0.0000	66.3786	4.8958	0.0631	90.6719	-13.6246	-13.2386	0.0000	-27.0265	3.3402	1.4557	83.7441	-18.9413	47.0285	12.4076	94.4425	-16.7303	-4.2167	92.9332	3.2519	32.2255	3.7469	92.7617	-8.7525	3.8639	
7.9160	4.1127	0.3044	-88.8118	-2.8423	8.3509	9.2897	34.4226	-5.2234	-5.6985	65.6509	-3.1515	-4.6894	0.0000	65.4416	4.6652	-0.6105	87.1874	-13.6699	-12.7897	0.0000	-27.0116	3.4518	1.4977	83.8677	-18.9780	47.1881	12.2962	94.3972	-16.6679	-4.1938	92.8827	3.2507	32.3317	3.5923	92.5809	-8.7072	3.8624	
7.9330	4.0591	0.1708	-88.8485	-2.8468	8.3698	9.3072	36.3037	-5.7845	-4.5993	70.5094	-3.1794	-4.4382	-0.0000	64.2649	4.3754	-1.4202	83.5397	-13.7390	-12.3512	-0.0000	-26.9621	3.5791	1.5334	83.9181	-18.9596	47.3287	12.1556	94.3828	-16.6046	-4.1660	92.7548	3.2211	32.5361	3.3523	92.3069	-8.7362	3.7726	
7.9490	3.9772	0.0445	-88.9019	-2.8512	8.3884	9.3249	38.4500	-6.3351	-3.7335	75.3252	-3.3878	-4.0319	0.0000	62.5658	4.0040	-2.1262	79.5809	-13.6413	-11.8932	0.0000	-26.8928	3.7039	1.5689	84.0498	-18.9075	47.5066	11.9818	94.3829	-16.5365	-4.1327	92.7106	3.1707	32.6545	3.0590	92.1082	-8.7813	3.6369	
7.9660	3.8536	-0.0708	-88.9841	-2.8554	8.4064	9.3429	40.9215	-6.8815	-3.2961	80.1129	-3.8921	-3.3168	0.0000	60.1089	3.5269	-2.6250	75.1338	-13.1319	-11.4000	-0.0000	-26.8044	3.8190	1.6082	84.3644	-18.8356	47.7913	11.7608	94.3694	-16.4636	-4.1035	92.8478	3.0995	32.5715	2.7108	92.0853	-8.8018	3.4763	
7.9830	3.7022	-0.1791	-89.0834	-2.8595	8.4242	9.3610	43.6490	-7.4423	-3.0881	84.8459	-4.5732	-2.4515	0.0000	57.1311	2.9724	-3.0505	70.3810	-12.4526	-10.8793	-0.0000	-26.6963	3.9318	1.6474	84.7589	-18.7276	48.1132	11.5065	94.3703	-16.3860	-4.0688	93.0683	3.0062	32.4031	2.3098	92.1375	-8.8403	3.2683	
7.9990	3.5351	-0.2804	-89.1759	-2.8634	8.4423	9.3789	46.4563	-7.9707	-3.0158	89.2253	-5.1436	-1.6652	-0.0000	54.0582	2.3950	-3.5139	65.7165	-12.1450	-10.3638	0.0000	-26.5816	4.0461	1.6815	85.0818	-18.5606	48.3197	11.2571	94.4534	-16.2998	-3.9992	93.2390	2.8965	32.3113	1.8919	92.1327	-8.9647	2.9888	
8.0160	3.3262	-0.3682	-89.2567	-2.8673	8.4609	9.3968	49.3413	-8.4983	-3.1491	93.0969	-5.7333	-0.8645	0.0000	50.9491	1.7935	-4.0771	61.1017	-12.4139	-9.8311	0.0000	-26.4603	4.1673	1.7030	85.2844	-18.3015	48.3311	10.9969	94.6759	-16.2009	-3.8792	93.3184	2.7649	32.3612	1.4437	92.0331	-9.2436	2.5810	
8.0330	3.1015	-0.4491	-89.3310	-2.8711	8.4798	9.4144	52.3009	-9.0169	-3.4180	96.6000	-6.2311	-0.1091	-0.0000	47.7420	1.1809	-4.6847	56.5815	-13.0555	-9.3372	0.0000	-26.3325	4.2900	1.7196	85.4162	-17.9855	48.2266	10.7427	94.9801	-16.0935	-3.7243	93.3481	2.6179	32.4873	0.9799	91.8791	-9.6146	2.0958	
8.0490	2.9528	-0.5413	-89.3910	-2.8745	8.4986	9.4316	55.1625	-9.3962	-3.5324	99.8903	-5.9822	0.1574	-0.0000	44.6828	0.6219	-5.2476	52.6686	-14.0045	-9.0494	-0.0000	-26.2108	4.4010	1.7490	85.4748	-17.6946	48.0912	10.5817	95.2629	-15.9868	-3.5520	93.3199	2.4798	32.6550	0.5781	91.6543	-9.9423	1.6761	
8.0660	2.9447	-0.6785	-89.4133	-2.8774	8.5174	9.4478	58.0673	-9.5810	-3.3615	103.4685	-4.4514	-0.3407	0.0000	41.7373	0.0813	-5.7384	49.4211	-15.4240	-9.0383	0.0000	-26.0992	4.5060	1.8048	85.4790	-17.4629	47.9805	10.5358	95.4712	-15.8871	-3.3776	93.2140	2.3586	32.9162	0.2395	91.2961	-10.1834	1.3554	
8.0830	3.0126	-0.8269	-89.4211	-2.8800	8.5360	9.4635	60.8742	-9.6039	-3.0579	106.8385	-2.1463	-1.3572	-0.0000	38.9419	-0.4272	-6.1730	46.7670	-17.1535	-9.2190	0.0000	-25.9935	4.5994	1.8728	85.4109	-17.2567	47.8397	10.5824	95.6591	-15.7890	-3.1865	93.0508	2.2468	33.2188	-0.0363	90.8662	-10.3749	1.1063	
8.0990	3.0548	-0.9029	-89.4771	-2.8830	8.5541	9.4798	62.9890	-9.4547	-2.7678	108.6684	0.0290	-2.5559	0.0000	36.6514	-0.7773	-6.5029	45.0227	-18.6455	-9.5307	0.0000	-25.8941	4.6511	1.9299	85.2130	-17.0562	47.5888	10.7412	95.8843	-15.6841	-2.9510	92.8810	2.1452	33.3717	-0.1773	90.5318	-10.4969	0.9849	
8.1160	3.0266	-0.8498	-89.6208	-2.8867	8.5711	9.4973	64.0593	-9.0726	-2.5367	108.0827	1.7695	-4.0003	0.0000	34.9958	-0.8991	-6.6924	44.3322	-19.6988	-10.0134	0.0000	-25.7919	4.6329	1.9670	84.8012	-16.8435	47.1137	11.0840	96.2104	-15.5538	-2.6246	92.6932	2.0630	33.2284	-0.1174	90.3982	-10.5230	1.0596	
8.1330	2.9726	-0.7246	-89.8129	-2.8908	8.5875	9.5154	64.4333	-8.5250	-2.3203	105.9579	3.3749	-5.6540	0.0000	33.8475	-0.8741	-6.7474	44.5533	-20.5185	-10.6311	-0.0000	-25.6958	4.5728	1.9941	84.2614	-16.6351	46.5298	11.5404	96.5757	-15.4185	-2.2546	92.4971	1.9908	32.9355	0.0744	90.3574	-10.4759	1.2648	
8.1490	2.9248	-0.6151	-89.9979	-2.8950	8.6044	9.5336	64.5707	-8.0007	-2.1259	103.5950	4.8378	-6.9972	0.0000	33.1750	-0.8025	-6.6776	45.5796	-21.1682	-11.2324	-0.0000	-25.6336	4.5244	2.0163	83.7897	-16.4644	46.1000	11.9171	96.8500	-15.3266	-1.9528	92.3756	1.9009	32.7406	0.2666	90.2570	-10.4120	1.4537	
8.1660	2.8900	-0.5553	89.8399	-2.8992	8.6221	9.5517	64.6296	-7.5597	-1.9296	101.4357	6.2042	-7.7844	0.0000	33.0245	-0.6923	-6.4332	47.4902	-21.6853	-11.8516	0.0000	-25.6275	4.5133	2.0366	83.4448	-16.3682	45.9587	12.1500	96.9609	-15.3108	-1.7634	92.3871	1.7735	32.7501	0.4366	90.0172	-10.3334	1.5919	
8.1830	2.8620	-0.5112	89.6847	-2.9036	8.6402	9.5700	64.4544	-7.1453	-1.7496	99.0447	7.4279	-8.2528	0.0000	33.3487	-0.5401	-6.0649	50.2120	-22.0364	-12.4604	-0.0000	-25.6553	4.5137	2.0516	83.1659	-16.3116	45.9695	12.3021	96.9798	-15.3362	-1.6406	92.4747	1.6277	32.8567	0.6075	89.7182	-10.2389	1.7132	
8.1990	2.8544	-0.4682	89.5439	-2.9080	8.6583	9.5879	64.0368	-6.7665	-1.6629	96.4078	8.3681	-8.5865	-0.0000	33.9759	-0.4278	-5.7392	53.4095	-22.1729	-12.8228	-0.0000	-25.6772	4.5022	2.0573	82.9693	-16.2211	45.9881	12.3704	96.9907	-15.3481	-1.5612	92.5485	1.4948	32.9872	0.7173	89.4492	-10.1812	1.7723	
8.2160	2.8801	-0.4240	89.4030	-2.9124	8.6764	9.6053	63.3616	-6.4284	-1.6972	93.5357	8.9879	-8.8104	-0.0000	34.8668	-0.4050	-5.5700	57.0960	-21.9095	-12.7553	-0.0000	-25.6705	4.4684	2.0531	82.8882	-16.0412	45.9449	12.3403	97.0441	-15.3147	-1.5199	92.5760	1.3781	33.1340	0.7262	89.2177	-10.1800	1.7416	
8.2330	2.9261	-0.3806	89.2765	-2.9169	8.6945	9.6224	62.4460	-6.1244	-1.8204	90.4197	9.3233	-8.8859	-0.0000	36.0616	-0.4230	-5.4415	61.2622	-21.4207	-12.4625	-0.0000	-25.6578	4.4229	2.0397	82.8899	-15.8270	45.9099	12.2258	97.0880	-15.2677	-1.5225	92.5896	1.2745	33.3048	0.6745	89.0169	-10.2165	1.6482	
8.2490	2.9681	-0.3306	89.2153	-2.9212	8.7130	9.6394	61.3305	-5.8436	-2.0220	87.0150	9.3396	-8.8824	-0.0000	37.5090	-0.4126	-5.1770	65.5322	-21.1998	-12.2860	0.0000	-25.6676	4.3730	2.0141	82.8933	-15.6698	45.9493	12.0672	97.0527	-15.2479	-1.5623	92.5966	1.2057	33.4485	0.6201	88.9146	-10.2855	1.5281	
8.2660	2.9905	-0.2494	89.2408	-2.9256	8.7317	9.6565	60.0549	-5.5994	-2.3345	83.3548	9.0943	-8.7657	0.0000	39.2188	-0.3094	-4.7109	69.8454	-21.5142	-12.4040	0.0000	-25.7151	4.3125	1.9700	82.8618	-15.6032	46.1244	11.8803	96.8821	-15.2886	-1.6399	92.6048	1.1802	33.5470	0.5687	88.9451	-10.4175	1.3518	
8.2830	3.0089	-0.1617	89.3317	-2.9299	8.7508	9.6733	58.5814	-5.3698	-2.7290	79.4072	8.5304	-8.5405	-0.0000	41.1811	-0.1570	-4.1193	74.2552	-22.1025	-12.6212	-0.0000	-25.7854	4.2479	1.9137	82.8322	-15.5931	46.3742	11.6504	96.6333	-15.3567	-1.7547	92.6060	1.1897	33.6184	0.5143	89.0739	-10.5827	1.1484	
8.2990	3.0441	-0.1331	89.4746	-2.9339	8.7701	9.6899	56.8334	-5.0901	-3.1018	75.0272	7.4379	-8.3312	0.0000	43.3153	-0.0386	-3.4357	78.5563	-22.6706	-12.7252	-0.0000	-25.8617	4.2056	1.8608	82.8322	-15.6298	46.5810	11.3715	96.4058	-15.3939	-1.8981	92.5834	1.2300	33.6666	0.4969	89.2654	-10.6839	1.0437	
8.3160	3.1239	-0.2247	89.6934	-2.9373	8.7897	9.7058	54.8010	-4.7161	-3.4434	69.8626	5.4173	-8.1577	-0.0000	45.6300	-0.0202	-2.5812	82.7546	-23.2535	-12.6365	0.0000	-25.9408	4.2144	1.8165	82.8646	-15.7130	46.6853	10.9812	96.2486	-15.3493	-2.0705	92.4929	1.2981	33.6874	0.5412	89.5289	-10.6702	1.1102	
8.3330	3.2197	-0.3758	89.9645	-2.9404	8.8095	9.7213	52.4976	-4.2785	-3.7552	64.2649	2.8638	-7.9873	-0.0000	48.1187	-0.0008	-1.6285	86.8420	-23.8108	-12.4545	0.0000	-26.0260	4.2455	1.7761	82.9260	-15.8438	46.7468	10.5401	96.1112	-15.2742	-2.2707	92.3780	1.3964	33.6846	0.6239	89.8562	-10.5926	1.2751	
